ply
format ascii 1.0
comment Created by Blender 3.6.5 - www.blender.org
element vertex 304
property float x
property float y
property float z
property float nx
property float ny
property float nz
element face 522
property list uchar uint vertex_indices
end_header
-0.318116 0.690766 0.609051 -0.304166 0.916617 -0.259416
-0.265090 0.617932 0.909593 -0.120567 0.612498 0.781223
0.027433 0.732893 0.881372 0.037782 0.806062 0.590623
0.033608 0.746250 0.614980 0.063431 0.990805 -0.119508
-0.470526 0.692832 0.740964 -0.320109 0.928640 -0.187502
-0.472673 0.690933 0.842028 -0.259122 0.808282 0.528711
-0.187679 0.511885 0.194861 -0.315809 0.829015 -0.461518
0.032294 0.631277 0.327932 0.064041 0.897061 -0.437242
0.375823 0.648022 0.622995 0.424452 0.871737 -0.244775
0.302277 0.582985 0.920994 0.163433 0.595005 0.786930
0.519785 0.629802 0.861970 0.334953 0.771690 0.540649
0.521932 0.631701 0.760906 0.438859 0.881891 -0.172251
0.241108 0.485474 0.203477 0.433339 0.782871 -0.446465
-0.003971 0.263472 1.005270 -0.012346 0.123277 0.992296
0.028323 0.478810 0.058209 0.063048 0.856415 -0.512424
0.022834 0.310209 -0.185455 0.060112 0.767852 -0.637801
0.274824 0.340816 -0.046137 0.496242 0.646893 -0.579028
-0.228870 0.371841 -0.056259 -0.389563 0.701455 -0.596827
-0.661411 0.524029 0.733735 -0.874093 0.438744 -0.208481
-0.663559 0.522130 0.834799 -0.792557 0.336557 0.508510
-0.619239 0.304752 0.896181 -0.625947 0.165582 0.762084
-0.672265 0.377586 0.595640 -0.861051 0.424155 -0.280505
-0.493119 0.241780 0.183294 -0.764180 0.432513 -0.478498
-0.770249 0.035388 0.584538 -0.985200 0.063485 -0.159220
-0.767566 0.029864 0.851265 -0.829036 0.039522 0.557797
-0.643880 0.033325 0.302325 -0.878815 0.063279 -0.472948
-0.303494 -0.001400 0.993927 -0.162895 -0.009856 0.986594
-0.653958 -0.262629 0.884781 -0.643326 -0.118424 0.756377
-0.714730 -0.316370 0.581696 -0.905638 -0.304481 -0.295146
-0.519358 -0.187018 0.174678 -0.810023 -0.316653 -0.493552
-0.480743 0.028635 0.038930 -0.835193 0.062087 -0.546441
-0.722143 -0.468453 0.713793 -0.920537 -0.320243 -0.223732
-0.724290 -0.470352 0.814857 -0.828911 -0.257532 0.496572
-0.338572 0.274829 -0.060413 -0.622978 0.495042 -0.605666
-0.302528 0.022486 -0.197776 -0.741685 0.058811 -0.668165
-0.109169 0.018781 -0.602208 -0.905920 0.063846 -0.418607
0.020206 0.133189 -0.597309 0.064462 0.921970 -0.381859
-0.011539 0.017287 -0.825198 -0.675974 0.056129 -0.734785
0.019303 0.044561 -0.824030 0.057623 0.704859 -0.707003
-0.369395 -0.228876 -0.070534 -0.677184 -0.390785 -0.623466
0.690803 0.440739 0.760906 0.928952 0.327685 -0.172251
0.688655 0.438840 0.861970 0.806868 0.238040 0.540649
0.615583 0.228693 0.920994 0.610529 0.089421 0.786930
0.689128 0.293730 0.622995 0.917112 0.314628 -0.244775
0.511322 0.179911 0.203477 0.830000 0.334319 -0.446465
0.261008 -0.036171 1.005270 0.120841 -0.027333 0.992296
0.744757 -0.057930 0.614980 0.991123 -0.058247 -0.119508
0.730745 -0.062425 0.881372 0.804630 -0.061104 0.590623
0.630486 -0.045170 0.327932 0.898158 -0.046174 -0.437242
0.580864 -0.338688 0.909593 0.593150 -0.194586 0.781223
0.646664 -0.400226 0.609051 0.872525 -0.414008 -0.259416
0.485083 -0.248887 0.194861 0.784157 -0.414848 -0.461518
0.478679 -0.030461 0.058209 0.857696 -0.042188 -0.512424
0.630071 -0.551743 0.740964 0.882509 -0.431302 -0.187502
0.627924 -0.553643 0.842028 0.770515 -0.356050 0.528711
0.371874 0.231069 -0.046137 0.702738 0.413384 -0.579027
0.310673 -0.015284 -0.185455 0.769439 -0.034268 -0.637801
0.134660 0.003762 -0.597309 0.922931 -0.048803 -0.381859
0.046587 0.013707 -0.824030 0.706614 -0.029033 -0.707003
0.341052 -0.272637 -0.056259 0.648533 -0.472443 -0.596827
-0.038515 -0.301043 0.993927 -0.029709 -0.160466 0.986594
-0.340653 -0.616921 0.884781 -0.196231 -0.624009 0.756377
-0.249144 -0.492580 0.174678 -0.413362 -0.765205 -0.493552
-0.401424 -0.670662 0.581696 -0.412978 -0.861590 -0.295146
-0.555420 -0.661314 0.814857 -0.356996 -0.791183 0.496572
-0.553272 -0.659415 0.713793 -0.430444 -0.874450 -0.223732
0.226715 -0.651868 0.896181 0.087769 -0.641502 0.762084
0.292515 -0.713405 0.595640 0.315640 -0.906470 -0.280505
0.179643 -0.518992 0.183294 0.335786 -0.811349 -0.478498
-0.064254 -0.765455 0.851265 -0.062188 -0.827645 0.557797
-0.059100 -0.768793 0.584538 -0.057507 -0.985567 -0.159220
-0.045688 -0.643121 0.302325 -0.044698 -0.879956 -0.472948
-0.030387 -0.480636 0.038930 -0.040545 -0.836516 -0.546441
0.437038 -0.722445 0.834799 0.237079 -0.827775 0.508510
0.439186 -0.720546 0.733735 0.328525 -0.921199 -0.208481
-0.014690 -0.303007 -0.197776 -0.032358 -0.743309 -0.668165
0.005285 -0.110646 -0.602208 -0.047451 -0.906927 -0.418607
0.015746 -0.013567 -0.825198 -0.026982 -0.677763 -0.734785
-0.272344 -0.338623 -0.070534 -0.470688 -0.624295 -0.623466
0.231349 -0.369648 -0.060413 0.415117 -0.678856 -0.605666
-0.913846 -0.484212 0.873601 -0.828899 -0.535767 -0.160874
-0.713047 -0.685376 0.679297 -0.661730 -0.661730 -0.352458
-0.750867 -0.723196 0.899111 -0.702739 -0.702739 -0.110973
-0.913453 -0.217917 0.607300 -0.827816 -0.160629 -0.537512
-0.712348 -0.411711 0.406872 -0.663774 -0.352610 -0.659599
-0.780359 -0.503989 0.587223 -0.780021 -0.440851 -0.444092
-0.968640 -0.334924 0.756595 -0.886573 -0.326769 -0.327430
-0.986338 -0.134924 0.712759 -0.929397 -0.052692 -0.365301
-0.986333 -0.378749 0.956595 -0.929878 -0.364091 -0.052583
-1.009459 -0.217917 0.873601 -0.991342 -0.092855 -0.092836
-0.511883 -0.886175 0.873601 -0.535767 -0.828899 -0.160874
-0.531660 -0.752687 0.587223 -0.440851 -0.780021 -0.444092
-0.639382 -0.611711 0.479297 -0.575463 -0.575462 -0.581107
-0.439382 -0.684676 0.406872 -0.352610 -0.663774 -0.659599
-0.505294 -0.477622 0.306872 -0.443082 -0.443082 -0.779331
-0.548257 -0.192406 0.218837 -0.542585 -0.133196 -0.829373
-0.371206 -0.343534 0.148586 -0.333865 -0.333865 -0.881515
-0.750375 -0.192406 0.368837 -0.712383 -0.115229 -0.692266
-0.245589 -0.885781 0.607300 -0.160629 -0.827816 -0.537512
-0.220078 -0.722704 0.368837 -0.115229 -0.712383 -0.692266
-0.362596 -0.940968 0.756595 -0.326769 -0.886573 -0.327430
-0.162596 -0.958666 0.712759 -0.052692 -0.929397 -0.365301
-0.245589 -0.981787 0.873601 -0.092855 -0.991342 -0.092837
-0.406421 -0.958661 0.956595 -0.364091 -0.929878 -0.052583
-0.220078 -0.520586 0.218837 -0.133196 -0.542585 -0.829374
-0.220078 -0.370586 0.136481 -0.068530 -0.351576 -0.933648
-0.220078 -0.192406 0.099326 -0.091074 -0.091074 -0.991671
-0.398257 -0.192406 0.136481 -0.351576 -0.068530 -0.933648
-0.986333 -0.378749 1.141626 -0.929878 -0.364091 0.052583
-1.009459 -0.217917 1.224620 -0.991342 -0.092855 0.092836
-0.750867 -0.723196 1.199111 -0.702739 -0.702739 0.110973
-0.913846 -0.484212 1.224620 -0.828899 -0.535767 0.160874
-0.713047 -0.685376 1.418924 -0.661730 -0.661730 0.352458
-0.780359 -0.503989 1.510999 -0.780021 -0.440851 0.444092
-0.968640 -0.334924 1.341627 -0.886573 -0.326769 0.327430
-0.913453 -0.217917 1.490922 -0.827816 -0.160629 0.537511
-0.986338 -0.134924 1.385462 -0.929397 -0.052692 0.365301
-0.712348 -0.411711 1.691349 -0.663774 -0.352610 0.659599
-0.750375 -0.192406 1.729385 -0.712383 -0.115229 0.692266
-0.406421 -0.958661 1.141627 -0.364091 -0.929878 0.052583
-0.511883 -0.886175 1.224620 -0.535767 -0.828899 0.160874
-0.531660 -0.752687 1.510999 -0.440851 -0.780021 0.444092
-0.639382 -0.611711 1.618924 -0.575463 -0.575462 0.581107
-0.439382 -0.684676 1.691349 -0.352610 -0.663774 0.659599
-0.505294 -0.477622 1.791349 -0.443082 -0.443082 0.779331
-0.548257 -0.192406 1.879385 -0.542585 -0.133196 0.829373
-0.371206 -0.343534 1.949636 -0.333865 -0.333865 0.881515
-0.398257 -0.192406 1.961740 -0.351576 -0.068530 0.933648
-0.245589 -0.981787 1.224620 -0.092855 -0.991342 0.092837
-0.362596 -0.940968 1.341627 -0.326769 -0.886573 0.327430
-0.162596 -0.958666 1.385463 -0.052692 -0.929397 0.365302
-0.245589 -0.885781 1.490922 -0.160629 -0.827816 0.537512
-0.220078 -0.722704 1.729385 -0.115229 -0.712383 0.692266
-0.220078 -0.520586 1.879385 -0.133196 -0.542585 0.829373
-0.220078 -0.370586 1.961740 -0.068530 -0.351576 0.933648
-0.220078 -0.192406 1.998895 -0.091073 -0.091073 0.991671
-0.986338 0.050112 0.712759 -0.929397 0.052693 -0.365301
-1.009458 0.133105 0.873601 -0.991342 0.092855 -0.092836
-0.913453 0.133105 0.607300 -0.827816 0.160629 -0.537511
-0.968639 0.250112 0.756595 -0.886573 0.326769 -0.327429
-0.712348 0.326898 0.406872 -0.663774 0.352610 -0.659599
-0.780359 0.419177 0.587223 -0.780021 0.440851 -0.444092
-0.913846 0.399400 0.873601 -0.828899 0.535767 -0.160874
-0.986332 0.293937 0.956595 -0.929878 0.364091 -0.052583
-0.713047 0.600563 0.679297 -0.661730 0.661730 -0.352458
-0.750867 0.638383 0.899111 -0.702739 0.702739 -0.110973
-0.398257 0.107594 0.136481 -0.351576 0.068530 -0.933648
-0.548257 0.107594 0.218837 -0.542585 0.133196 -0.829373
-0.750375 0.107594 0.368837 -0.712383 0.115230 -0.692266
-0.371205 0.258722 0.148586 -0.333865 0.333865 -0.881515
-0.505294 0.392810 0.306872 -0.443082 0.443082 -0.779331
-0.639382 0.526898 0.479297 -0.575463 0.575463 -0.581107
-0.439382 0.599864 0.406872 -0.352610 0.663774 -0.659599
-0.531660 0.667875 0.587223 -0.440851 0.780021 -0.444092
-0.511883 0.801363 0.873601 -0.535767 0.828899 -0.160874
-0.220078 0.107594 0.099326 -0.091074 0.091074 -0.991671
-0.220078 0.435773 0.218837 -0.133196 0.542585 -0.829373
-0.245588 0.800969 0.607300 -0.160629 0.827816 -0.537511
-0.362596 0.856156 0.756595 -0.326769 0.886573 -0.327429
-0.162596 0.873854 0.712759 -0.052693 0.929397 -0.365302
-0.245588 0.896975 0.873601 -0.092856 0.991342 -0.092837
-0.406420 0.873849 0.956595 -0.364091 0.929878 -0.052583
-1.009458 0.133105 1.224620 -0.991342 0.092855 0.092836
-0.986338 0.050112 1.385462 -0.929397 0.052693 0.365301
-0.986332 0.293937 1.141626 -0.929878 0.364091 0.052583
-0.968639 0.250112 1.341626 -0.886573 0.326769 0.327429
-0.913453 0.133105 1.490922 -0.827816 0.160629 0.537511
-0.750375 0.107594 1.729385 -0.712383 0.115230 0.692266
-0.913846 0.399400 1.224620 -0.828899 0.535767 0.160874
-0.780359 0.419177 1.510999 -0.780021 0.440851 0.444092
-0.712348 0.326898 1.691349 -0.663774 0.352610 0.659599
-0.750867 0.638383 1.199111 -0.702739 0.702739 0.110973
-0.713047 0.600563 1.418924 -0.661730 0.661730 0.352458
-0.548257 0.107594 1.879385 -0.542585 0.133196 0.829373
-0.398257 0.107594 1.961740 -0.351576 0.068530 0.933648
-0.639382 0.526898 1.618924 -0.575463 0.575463 0.581107
-0.505294 0.392810 1.791349 -0.443082 0.443082 0.779331
-0.371205 0.258722 1.949636 -0.333865 0.333865 0.881515
-0.511883 0.801363 1.224620 -0.535767 0.828899 0.160874
-0.531660 0.667875 1.510999 -0.440851 0.780021 0.444092
-0.439382 0.599864 1.691349 -0.352610 0.663774 0.659599
-0.406420 0.873849 1.141626 -0.364091 0.929878 0.052583
-0.220078 0.107594 1.998895 -0.091073 0.091073 0.991671
-0.220078 0.435773 1.879385 -0.133196 0.542585 0.829373
-0.220078 0.285773 1.961740 -0.068531 0.351576 0.933648
-0.362596 0.856156 1.341626 -0.326769 0.886573 0.327429
-0.245588 0.800969 1.490922 -0.160629 0.827816 0.537511
-0.220078 0.637892 1.729385 -0.115230 0.712383 0.692266
-0.245588 0.896975 1.224620 -0.092856 0.991342 0.092837
-0.162596 0.873854 1.385463 -0.052693 0.929397 0.365302
0.022441 -0.958666 0.712759 0.052692 -0.929397 -0.365302
0.105434 -0.981787 0.873601 0.092854 -0.991342 -0.092837
0.079922 -0.722704 0.368837 0.115229 -0.712383 -0.692266
0.105434 -0.885781 0.607300 0.160629 -0.827816 -0.537512
0.222441 -0.940968 0.756595 0.326769 -0.886573 -0.327430
0.079922 -0.370586 0.136481 0.068530 -0.351576 -0.933648
0.079922 -0.520586 0.218837 0.133196 -0.542585 -0.829374
0.079922 -0.192406 0.099326 0.091074 -0.091074 -0.991671
0.299227 -0.684677 0.406872 0.352610 -0.663774 -0.659599
0.391505 -0.752687 0.587223 0.440851 -0.780021 -0.444092
0.371728 -0.886175 0.873601 0.535767 -0.828899 -0.160874
0.266266 -0.958661 0.956595 0.364091 -0.929878 -0.052583
0.231050 -0.343534 0.148586 0.333865 -0.333865 -0.881515
0.365139 -0.477622 0.306872 0.443082 -0.443082 -0.779331
0.499227 -0.611711 0.479297 0.575462 -0.575463 -0.581107
0.408102 -0.192406 0.218837 0.542585 -0.133196 -0.829374
0.258102 -0.192406 0.136481 0.351576 -0.068530 -0.933648
0.572892 -0.685376 0.679297 0.661730 -0.661730 -0.352459
0.610712 -0.723196 0.899111 0.702739 -0.702739 -0.110973
0.572193 -0.411711 0.406872 0.663774 -0.352610 -0.659599
0.640204 -0.503989 0.587223 0.780021 -0.440851 -0.444093
0.773691 -0.484212 0.873601 0.828899 -0.535767 -0.160874
0.773298 -0.217917 0.607300 0.827816 -0.160629 -0.537512
0.610220 -0.192406 0.368837 0.712383 -0.115229 -0.692266
0.828485 -0.334925 0.756594 0.886573 -0.326769 -0.327430
0.846183 -0.134925 0.712759 0.929397 -0.052692 -0.365302
0.869304 -0.217917 0.873601 0.991342 -0.092855 -0.092837
0.846178 -0.378749 0.956594 0.929878 -0.364091 -0.052583
0.105434 -0.981787 1.224620 0.092854 -0.991342 0.092837
0.022441 -0.958666 1.385463 0.052692 -0.929397 0.365302
0.222441 -0.940968 1.341627 0.326769 -0.886573 0.327430
0.105434 -0.885781 1.490922 0.160629 -0.827816 0.537512
0.079922 -0.722704 1.729385 0.115229 -0.712383 0.692266
0.079922 -0.520586 1.879385 0.133196 -0.542585 0.829373
0.079922 -0.370586 1.961740 0.068530 -0.351576 0.933648
0.079922 -0.192406 1.998895 0.091073 -0.091073 0.991671
0.266266 -0.958661 1.141627 0.364091 -0.929878 0.052583
0.371728 -0.886175 1.224620 0.535767 -0.828899 0.160874
0.391505 -0.752687 1.510999 0.440851 -0.780021 0.444092
0.299227 -0.684677 1.691349 0.352610 -0.663774 0.659599
0.499227 -0.611711 1.618924 0.575462 -0.575463 0.581107
0.365139 -0.477622 1.791349 0.443082 -0.443082 0.779331
0.231050 -0.343534 1.949636 0.333865 -0.333865 0.881515
0.408102 -0.192406 1.879385 0.542585 -0.133196 0.829374
0.258102 -0.192406 1.961740 0.351575 -0.068530 0.933648
0.610712 -0.723196 1.199111 0.702739 -0.702739 0.110973
0.572892 -0.685376 1.418924 0.661730 -0.661730 0.352459
0.773691 -0.484212 1.224621 0.828899 -0.535767 0.160874
0.640204 -0.503989 1.510999 0.780021 -0.440851 0.444093
0.572193 -0.411711 1.691349 0.663774 -0.352610 0.659599
0.828485 -0.334925 1.341627 0.886573 -0.326769 0.327431
0.773298 -0.217917 1.490922 0.827816 -0.160629 0.537512
0.610220 -0.192406 1.729385 0.712383 -0.115229 0.692266
0.846178 -0.378749 1.141627 0.929878 -0.364091 0.052583
0.869304 -0.217917 1.224621 0.991342 -0.092855 0.092837
0.846183 -0.134925 1.385463 0.929397 -0.052692 0.365302
0.079922 0.107594 0.099326 0.091073 0.091074 -0.991671
0.079922 0.285773 0.136481 0.068530 0.351576 -0.933648
-0.220078 0.285773 0.136481 -0.068530 0.351576 -0.933648
0.079922 0.435773 0.218837 0.133196 0.542585 -0.829374
-0.220078 0.637892 0.368837 -0.115230 0.712383 -0.692266
0.079922 0.637892 0.368837 0.115229 0.712383 -0.692267
0.105434 0.800969 0.607300 0.160628 0.827816 -0.537512
0.022441 0.873854 0.712759 0.052692 0.929397 -0.365302
0.222441 0.856156 0.756594 0.326769 0.886573 -0.327431
0.105434 0.896975 0.873601 0.092854 0.991342 -0.092837
0.408102 0.107594 0.218837 0.542585 0.133196 -0.829374
0.258102 0.107594 0.136481 0.351576 0.068530 -0.933648
0.231050 0.258722 0.148586 0.333864 0.333865 -0.881515
0.299227 0.599864 0.406872 0.352610 0.663774 -0.659599
0.499227 0.526899 0.479297 0.575462 0.575462 -0.581108
0.365139 0.392810 0.306872 0.443082 0.443082 -0.779331
0.391505 0.667875 0.587223 0.440851 0.780021 -0.444093
0.266266 0.873849 0.956594 0.364091 0.929878 -0.052583
0.773298 0.133105 0.607300 0.827816 0.160628 -0.537512
0.610220 0.107594 0.368837 0.712383 0.115229 -0.692266
0.572193 0.326899 0.406872 0.663774 0.352610 -0.659599
0.640204 0.419177 0.587223 0.780021 0.440851 -0.444093
0.828485 0.250113 0.756594 0.886573 0.326769 -0.327431
0.572892 0.600564 0.679297 0.661730 0.661730 -0.352459
0.773692 0.399400 0.873601 0.828899 0.535767 -0.160874
0.371729 0.801363 0.873601 0.535767 0.828898 -0.160874
0.846183 0.050113 0.712759 0.929397 0.052692 -0.365302
0.869304 0.133105 0.873601 0.991342 0.092854 -0.092837
0.846178 0.293937 0.956594 0.929878 0.364091 -0.052583
0.079922 0.107594 1.998895 0.091073 0.091073 0.991671
0.079922 0.285773 1.961740 0.068530 0.351575 0.933648
0.079922 0.637892 1.729385 0.115229 0.712383 0.692266
0.079922 0.435773 1.879385 0.133196 0.542585 0.829374
0.105434 0.896975 1.224621 0.092854 0.991342 0.092837
0.022441 0.873854 1.385463 0.052692 0.929397 0.365302
0.222441 0.856156 1.341627 0.326769 0.886573 0.327431
0.105434 0.800969 1.490922 0.160628 0.827816 0.537512
0.258102 0.107594 1.961740 0.351575 0.068530 0.933648
0.408102 0.107594 1.879385 0.542585 0.133196 0.829373
0.231050 0.258722 1.949636 0.333865 0.333865 0.881515
0.365139 0.392810 1.791349 0.443082 0.443082 0.779331
0.391505 0.667875 1.510999 0.440851 0.780021 0.444093
0.299227 0.599864 1.691349 0.352610 0.663774 0.659599
0.499227 0.526899 1.618924 0.575462 0.575462 0.581108
0.266266 0.873849 1.141627 0.364091 0.929878 0.052583
0.371729 0.801363 1.224621 0.535767 0.828898 0.160874
0.610220 0.107594 1.729385 0.712383 0.115229 0.692266
0.773298 0.133105 1.490922 0.827816 0.160628 0.537512
0.640204 0.419177 1.510999 0.780021 0.440851 0.444093
0.828485 0.250113 1.341627 0.886573 0.326769 0.327431
0.773692 0.399400 1.224621 0.828899 0.535767 0.160874
0.572193 0.326899 1.691349 0.663774 0.352610 0.659599
0.610712 0.638384 1.199111 0.702739 0.702739 0.110973
0.610712 0.638384 0.899111 0.702739 0.702739 -0.110973
0.572892 0.600564 1.418924 0.661730 0.661730 0.352459
0.869304 0.133105 1.224621 0.991342 0.092854 0.092837
0.846183 0.050113 1.385463 0.929397 0.052692 0.365302
0.846178 0.293937 1.141627 0.929878 0.364091 0.052583
4 0 1 2 3
4 0 4 5 1
4 6 0 3 7
4 8 9 10 11
4 8 3 2 9
4 12 7 3 8
4 1 13 9 2
4 14 6 7 12
4 15 14 12 16
4 15 17 6 14
4 18 19 5 4
4 19 20 1 5
4 18 21 20 19
4 21 18 4 0
4 22 21 0 6
4 23 24 20 21
4 25 23 21 22
4 20 26 13 1
4 24 27 26 20
4 23 28 27 24
4 25 29 28 23
4 29 25 22 30
4 31 32 27 28
4 33 22 6 17
4 33 34 30 22
4 34 33 17 15
4 35 34 15 36
4 37 35 36 38
4 39 29 30 34
4 40 11 10 41
4 9 42 41 10
4 42 43 40 41
4 43 8 11 40
4 44 12 8 43
4 13 45 42 9
4 46 43 42 47
4 48 44 43 46
4 45 49 47 42
4 49 50 46 47
4 50 51 48 46
4 51 52 44 48
4 53 50 49 54
4 55 16 12 44
4 52 56 55 44
4 56 15 16 55
4 57 36 15 56
4 58 38 36 57
4 59 56 52 51
4 26 60 45 13
4 27 61 60 26
4 29 62 63 28
4 32 64 61 27
4 64 65 63 61
4 31 65 64 32
4 65 31 28 63
4 60 66 49 45
4 67 68 51 50
4 61 69 66 60
4 69 70 67 66
4 63 70 69 61
4 70 71 68 67
4 62 71 70 63
4 71 62 72 68
4 66 73 54 49
4 73 74 53 54
4 67 74 73 66
4 74 67 50 53
4 75 76 57 56
4 35 76 75 34
4 76 77 58 57
4 37 77 76 35
4 77 37 38 58
4 62 78 75 72
4 39 78 62 29
4 78 39 34 75
4 68 79 59 51
4 75 79 68 72
4 79 75 56 59
3 80 81 82
3 83 84 85
3 86 85 80
3 86 87 83
3 86 88 89
3 90 81 91
3 92 93 91
3 92 84 94
3 92 81 85
3 95 96 94
3 95 84 97
3 98 93 99
3 100 101 102
3 100 91 98
3 100 103 90
3 104 96 105
3 104 93 94
3 106 96 107
3 89 108 109
3 80 110 111
3 108 80 111
3 111 112 113
3 114 108 111
3 114 113 115
3 116 114 115
3 115 117 118
3 90 119 120
3 110 90 120
3 112 120 121
3 122 112 121
3 122 123 124
3 117 122 124
3 125 117 124
3 125 126 127
3 119 102 128
3 129 119 128
3 129 130 131
3 121 129 131
3 123 131 132
3 133 123 132
3 126 133 134
3 135 126 134
3 136 89 137
3 138 97 83
3 136 83 87
3 139 136 137
3 140 138 141
3 141 139 142
3 143 139 137
3 144 142 145
3 146 95 147
3 148 95 97
3 149 147 150
3 140 147 148
3 151 140 141
3 152 151 153
3 144 151 141
3 154 144 145
3 155 107 146
3 149 155 146
3 156 149 150
3 152 156 150
3 157 152 153
3 158 153 154
3 159 158 160
3 161 158 154
3 137 109 162
3 163 109 116
3 143 162 164
3 163 165 162
3 163 115 166
3 166 118 167
3 164 142 143
3 164 165 168
3 169 165 166
3 170 166 167
3 145 168 171
3 172 168 169
3 167 125 173
3 173 127 174
3 170 175 169
3 170 173 176
3 177 173 174
3 178 145 171
3 172 178 171
3 172 175 179
3 180 175 176
3 161 178 181
3 174 135 182
3 177 183 176
3 177 182 184
3 179 185 178
3 180 186 179
3 180 183 187
3 188 161 181
3 181 185 188
3 189 185 186
3 102 190 191
3 98 192 193
3 193 101 98
3 194 190 193
3 104 195 196
3 196 99 104
3 197 105 106
3 193 198 199
3 194 199 200
3 194 201 191
3 196 202 203
3 196 198 192
3 204 198 203
3 197 202 195
3 205 202 206
3 200 207 208
3 204 209 210
3 204 207 199
3 211 207 210
3 205 209 203
3 212 209 213
3 214 210 212
3 214 215 216
3 214 217 211
3 128 191 218
3 130 218 219
3 220 219 218
3 221 130 219
3 132 221 222
3 133 222 223
3 224 133 223
3 225 134 224
3 226 191 201
3 227 201 200
3 220 226 227
3 228 220 227
3 229 221 228
3 230 229 228
3 223 229 231
3 232 223 231
3 233 232 231
3 225 232 234
3 235 200 208
3 236 227 235
3 211 235 208
3 237 236 235
3 230 236 238
3 239 230 238
3 240 238 237
3 241 239 238
3 233 239 242
3 243 211 217
3 244 217 216
3 240 243 244
3 245 240 244
3 246 106 155
3 247 155 248
3 249 248 156
3 250 249 156
3 157 251 250
3 159 252 157
3 253 254 252
3 255 159 160
3 246 206 197
3 256 206 257
3 258 246 247
3 258 256 257
3 249 258 247
3 259 249 251
3 259 260 261
3 252 259 251
3 254 262 252
3 263 254 255
3 256 213 205
3 264 213 265
3 266 256 261
3 266 264 265
3 260 266 261
3 267 268 264
3 269 260 262
3 269 270 267
3 271 269 262
3 272 212 264
3 273 215 272
3 268 272 264
3 274 268 270
3 182 225 275
3 276 183 184
3 184 275 276
3 277 186 187
3 187 278 277
3 279 160 188
3 280 281 279
3 189 279 188
3 189 282 280
3 283 233 284
3 275 234 283
3 285 284 286
3 285 278 276
3 285 275 283
3 287 281 282
3 288 289 287
3 288 282 277
3 288 278 286
3 290 271 263
3 290 255 279
3 290 281 291
3 292 241 293
3 284 242 292
3 294 295 296
3 297 293 294
3 297 289 286
3 297 284 292
3 298 270 299
3 298 271 291
3 300 296 298
3 300 291 287
3 300 289 294
3 301 216 273
3 302 244 301
3 302 295 293
3 302 241 245
3 303 273 274
3 303 270 296
3 303 295 301
3 80 85 81
3 83 97 84
3 86 83 85
3 86 89 87
3 86 80 88
3 90 82 81
3 92 94 93
3 92 85 84
3 92 91 81
3 95 107 96
3 95 94 84
3 98 91 93
3 100 98 101
3 100 90 91
3 100 102 103
3 104 94 96
3 104 99 93
3 106 105 96
3 89 88 108
3 80 82 110
3 108 88 80
3 111 110 112
3 114 109 108
3 114 111 113
3 116 109 114
3 115 113 117
3 90 103 119
3 110 82 90
3 112 110 120
3 122 113 112
3 122 121 123
3 117 113 122
3 125 118 117
3 125 124 126
3 119 103 102
3 129 120 119
3 129 128 130
3 121 120 129
3 123 121 131
3 133 124 123
3 126 124 133
3 135 127 126
3 136 87 89
3 138 148 97
3 136 138 83
3 139 138 136
3 140 148 138
3 141 138 139
3 143 142 139
3 144 141 142
3 146 107 95
3 148 147 95
3 149 146 147
3 140 150 147
3 151 150 140
3 152 150 151
3 144 153 151
3 154 153 144
3 155 106 107
3 149 248 155
3 156 248 149
3 152 250 156
3 157 250 152
3 158 157 153
3 159 157 158
3 161 160 158
3 137 89 109
3 163 162 109
3 143 137 162
3 163 166 165
3 163 116 115
3 166 115 118
3 164 168 142
3 164 162 165
3 169 168 165
3 170 169 166
3 145 142 168
3 172 171 168
3 167 118 125
3 173 125 127
3 170 176 175
3 170 167 173
3 177 176 173
3 178 154 145
3 172 179 178
3 172 169 175
3 180 179 175
3 161 154 178
3 174 127 135
3 177 184 183
3 177 174 182
3 179 186 185
3 180 187 186
3 180 176 183
3 188 160 161
3 181 178 185
3 189 188 185
3 102 101 190
3 98 99 192
3 193 190 101
3 194 191 190
3 104 105 195
3 196 192 99
3 197 195 105
3 193 192 198
3 194 193 199
3 194 200 201
3 196 195 202
3 196 203 198
3 204 199 198
3 197 206 202
3 205 203 202
3 200 199 207
3 204 203 209
3 204 210 207
3 211 208 207
3 205 213 209
3 212 210 209
3 214 211 210
3 214 212 215
3 214 216 217
3 128 102 191
3 130 128 218
3 220 221 219
3 221 131 130
3 132 131 221
3 133 132 222
3 224 134 133
3 225 135 134
3 226 218 191
3 227 226 201
3 220 218 226
3 228 221 220
3 229 222 221
3 230 231 229
3 223 222 229
3 232 224 223
3 233 234 232
3 225 224 232
3 235 227 200
3 236 228 227
3 211 237 235
3 237 238 236
3 230 228 236
3 239 231 230
3 240 241 238
3 241 242 239
3 233 231 239
3 243 237 211
3 244 243 217
3 240 237 243
3 245 241 240
3 246 197 106
3 247 246 155
3 249 247 248
3 250 251 249
3 157 252 251
3 159 253 252
3 253 255 254
3 255 253 159
3 246 257 206
3 256 205 206
3 258 257 246
3 258 261 256
3 249 261 258
3 259 261 249
3 259 262 260
3 252 262 259
3 254 271 262
3 263 271 254
3 256 265 213
3 264 212 213
3 266 265 256
3 266 267 264
3 260 267 266
3 267 270 268
3 269 267 260
3 269 299 270
3 271 299 269
3 272 215 212
3 273 216 215
3 268 273 272
3 274 273 268
3 182 135 225
3 276 278 183
3 184 182 275
3 277 282 186
3 187 183 278
3 279 255 160
3 280 282 281
3 189 280 279
3 189 186 282
3 283 234 233
3 275 225 234
3 285 283 284
3 285 286 278
3 285 276 275
3 287 291 281
3 288 286 289
3 288 287 282
3 288 277 278
3 290 291 271
3 290 263 255
3 290 279 281
3 292 242 241
3 284 233 242
3 294 293 295
3 297 292 293
3 297 294 289
3 297 286 284
3 298 296 270
3 298 299 271
3 300 294 296
3 300 298 291
3 300 287 289
3 301 244 216
3 302 245 244
3 302 301 295
3 302 293 241
3 303 301 273
3 303 274 270
3 303 296 295
