ply
format ascii 1.0
comment Generated by PyMesh
element vertex 842
property double x
property double y
property double z
element face 1680
property list uchar int vertex_indices
end_header
0 0.55557 -0.83147
0.074658 0.37533 -0.92388
0 0.382683 -0.92388
0.03806 0.191342 -0.980785
0 0.19509 -0.980785
0.18024 0.906127 -0.382683
0 0.923879 -0.382683
0.162212 0.815493 -0.55557
0 0.83147 -0.55557
0.13795 0.69352 -0.707107
0 0.707107 -0.707107
0.108386 0.544895 -0.83147
0.270598 0.653281 -0.707107
0.212608 0.51328 -0.83147
0.146447 0.353553 -0.92388
0.074658 0.18024 -0.980785
0.31819 0.768178 -0.55557
0.108386 0.162212 -0.980785
0.46194 0.691342 -0.55557
0.392847 0.587938 -0.707107
0.308658 0.46194 -0.83147
0.212608 0.31819 -0.92388
0.392847 0.392847 -0.83147
0.270598 0.270598 -0.92388
0.13795 0.13795 -0.980785
0.587938 0.587938 -0.55557
0.5 0.5 -0.707107
0.691342 0.46194 -0.55557
0.587938 0.392847 -0.707107
0.46194 0.308658 -0.83147
0.31819 0.212608 -0.92388
0.162212 0.108386 -0.980785
0.353553 0.146447 -0.92388
0.18024 0.074658 -0.980785
0.768178 0.31819 -0.55557
0.653281 0.270598 -0.707107
0.51328 0.212607 -0.83147
0.906127 0.18024 -0.382683
0.815493 0.162212 -0.55557
0.69352 0.13795 -0.707107
0.544895 0.108386 -0.83147
0.37533 0.074658 -0.92388
0.191342 0.03806 -0.980785
0.382683 -0 -0.92388
0.19509 -0 -0.980785
0.923879 0 -0.382683
0.831469 -0 -0.55557
0.707107 0 -0.707107
0.55557 -0 -0.83147
0.906127 -0.18024 -0.382683
0.815493 -0.162212 -0.55557
0.69352 -0.13795 -0.707107
0.544895 -0.108386 -0.83147
0.37533 -0.074658 -0.92388
0.191342 -0.03806 -0.980785
0.96194 -0.191342 -0.19509
0.906127 -0.37533 0.19509
0.353553 -0.146447 -0.92388
0.18024 -0.074658 -0.980785
0.923879 -0.382683 0
0.906127 -0.37533 -0.19509
0.853553 -0.353553 -0.382683
0.768178 -0.31819 -0.55557
0.653281 -0.270598 -0.707107
0.51328 -0.212608 -0.83147
0.768178 -0.51328 -0.382683
0.691341 -0.46194 -0.55557
0.587938 -0.392847 -0.707107
0.46194 -0.308658 -0.83147
0.768178 -0.51328 0.382683
0.31819 -0.212608 -0.92388
0.815493 -0.544895 0.19509
0.162212 -0.108386 -0.980785
0.831469 -0.55557 0
0.815493 -0.544895 -0.19509
0.270598 -0.270598 -0.92388
0.13795 -0.13795 -0.980785
0.69352 -0.69352 0.19509
0.707106 -0.707107 0
0.69352 -0.69352 -0.19509
0.653281 -0.653281 -0.382683
0.587938 -0.587938 -0.55557
0.5 -0.5 0.707107
0.5 -0.5 -0.707107
0.587938 -0.587938 0.55557
0.392847 -0.392847 -0.83147
0.653281 -0.653281 0.382683
0.392847 -0.587938 -0.707107
0.392847 -0.587938 0.707107
0.46194 -0.691342 0.55557
0.308658 -0.46194 -0.83147
0.51328 -0.768178 0.382683
0.212607 -0.31819 -0.92388
0.544895 -0.815493 0.19509
0.108386 -0.162212 -0.980785
0.55557 -0.831469 0
0.544895 -0.815493 -0.19509
0.51328 -0.768178 -0.382683
0.308658 -0.46194 0.83147
0.46194 -0.691342 -0.55557
0.074658 -0.18024 -0.980785
0.37533 -0.906127 -0.19509
0.146447 -0.353553 0.92388
0.353553 -0.853553 -0.382683
0.212607 -0.51328 0.83147
0.318189 -0.768178 -0.55557
0.270598 -0.653281 0.707107
0.270598 -0.653281 -0.707107
0.318189 -0.768178 0.55557
0.212607 -0.51328 -0.83147
0.353553 -0.853553 0.382683
0.146447 -0.353553 -0.92388
0.37533 -0.906127 0.19509
0.382683 -0.923879 0
0.13795 -0.69352 0.707107
0.162212 -0.815493 0.55557
0.13795 -0.69352 -0.707107
0.108386 -0.544895 -0.83147
0.18024 -0.906127 0.382683
0.074658 -0.37533 -0.92388
0.191342 -0.961939 0.19509
0.03806 -0.191342 -0.980785
0.19509 -0.980785 0
0.191342 -0.961939 -0.19509
0.074658 -0.37533 0.92388
0.18024 -0.906127 -0.382683
0.108386 -0.544895 0.83147
0.162212 -0.815493 -0.55557
-0 -0.980785 -0.19509
-0 -0.382683 0.92388
0 -0.923879 -0.382683
-0 -0.55557 0.83147
-0 -0.831469 -0.55557
-0 -0.707107 0.707107
-0 -0.707107 -0.707107
-0 -0.831469 0.55557
-0 -0.55557 -0.83147
0 -0.923879 0.382683
-0 -0.382683 -0.92388
-0 -0.980785 0.19509
-0 -0.19509 -0.980785
-0 -0.999999 0
-0.13795 -0.69352 -0.707107
-0.108386 -0.544895 -0.83147
-0.18024 -0.906127 0.382683
-0.074658 -0.37533 -0.92388
-0.191342 -0.961939 0.19509
-0.03806 -0.191342 -0.980785
-0.195091 -0.980785 0
-0.03806 -0.191342 0.980785
-0.191342 -0.961939 -0.19509
-0.074658 -0.37533 0.92388
-0.18024 -0.906127 -0.382683
-0.108386 -0.544895 0.83147
-0.162212 -0.815493 -0.55557
-0.13795 -0.69352 0.707107
-0.162212 -0.815493 0.55557
-0.074658 -0.18024 0.980785
-0.146447 -0.353553 0.92388
-0.353553 -0.853553 -0.382683
-0.212608 -0.51328 0.83147
-0.31819 -0.768177 -0.55557
-0.270598 -0.653281 0.707107
-0.270598 -0.653281 -0.707107
-0.31819 -0.768177 0.55557
-0.212608 -0.51328 -0.83147
-0.353553 -0.853553 0.382683
-0.146447 -0.353553 -0.92388
-0.37533 -0.906127 0.19509
-0.074658 -0.18024 -0.980785
-0.382683 -0.923879 0
-0.37533 -0.906127 -0.19509
-0.51328 -0.768178 0.382683
-0.212608 -0.31819 -0.92388
-0.544895 -0.815493 0.19509
-0.108386 -0.162212 -0.980785
-0.55557 -0.831469 0
-0.108386 -0.162212 0.980785
-0.544895 -0.815493 -0.19509
-0.212608 -0.31819 0.92388
-0.51328 -0.768178 -0.382683
-0.308658 -0.461939 0.83147
-0.46194 -0.691341 -0.55557
-0.392847 -0.587938 0.707107
-0.392847 -0.587938 -0.707107
-0.46194 -0.691341 0.55557
-0.308658 -0.461939 -0.83147
-0.653281 -0.653281 -0.382683
-0.392847 -0.392847 0.83147
-0.587938 -0.587937 -0.55557
-0.5 -0.5 0.707107
-0.5 -0.5 -0.707107
-0.587938 -0.587937 0.55557
-0.392847 -0.392847 -0.83147
-0.653281 -0.653281 0.382683
-0.270598 -0.270598 -0.92388
-0.69352 -0.69352 0.19509
-0.13795 -0.13795 -0.980785
-0.707106 -0.707106 0
-0.13795 -0.13795 0.980785
-0.69352 -0.69352 -0.19509
-0.270598 -0.270598 0.92388
-0.31819 -0.212607 -0.92388
-0.768177 -0.51328 0.382683
-0.815493 -0.544895 0.19509
-0.162212 -0.108386 -0.980785
-0.831469 -0.555569 0
-0.162212 -0.108386 0.980785
-0.815493 -0.544895 -0.19509
-0.31819 -0.212607 0.92388
-0.768177 -0.51328 -0.382683
-0.46194 -0.308658 0.83147
-0.691341 -0.461939 -0.55557
-0.587938 -0.392847 0.707107
-0.587938 -0.392847 -0.707107
-0.691341 -0.461939 0.55557
-0.46194 -0.308658 -0.83147
-0.853553 -0.353553 -0.382683
-0.768177 -0.318189 -0.55557
-0.653281 -0.270598 0.707107
-0.653281 -0.270598 -0.707107
-0.768177 -0.318189 0.55557
-0.51328 -0.212607 -0.83147
-0.853553 -0.353553 0.382683
-0.353553 -0.146447 -0.92388
-0.906127 -0.37533 0.19509
-0.18024 -0.074658 -0.980785
-0.923879 -0.382683 0
-0.18024 -0.074658 0.980785
-0.906127 -0.37533 -0.19509
-0.353553 -0.146447 0.92388
-0.51328 -0.212607 0.83147
-0.191342 -0.03806 -0.980785
-0.961939 -0.191341 0.19509
-0.980784 -0.19509 0
-0.191342 -0.03806 0.980785
-0.961939 -0.191341 -0.19509
-0.37533 -0.074658 0.92388
-0.906127 -0.18024 -0.382683
-0.544895 -0.108386 0.83147
-0.815493 -0.162211 -0.55557
-0.69352 -0.13795 0.707107
-0.69352 -0.13795 -0.707107
-0.815493 -0.162211 0.55557
-0.544895 -0.108386 -0.83147
-0.906127 -0.18024 0.382683
-0.37533 -0.074658 -0.92388
-0.707107 0 0.707107
-0.707107 0 -0.707107
-0.19509 0 -0.980785
-0.980785 0 -0.19509
-0.999999 0 0
-0.961939 0.191342 0.19509
-0.980784 0.195091 0
-0.191342 0.03806 -0.980785
-0.961939 0.191342 -0.19509
-0.37533 0.074658 0.92388
-0.382683 0 0.92388
-0.906127 0.18024 -0.382683
-0.923879 0 -0.382683
-0.55557 0 0.83147
-0.544895 0.108386 0.83147
-0.831469 0 -0.55557
-0.815493 0.162212 -0.55557
-0.69352 0.13795 0.707107
-0.69352 0.13795 -0.707107
-0.831469 0 0.55557
-0.815493 0.162212 0.55557
-0.55557 0 -0.83147
-0.544895 0.108386 -0.83147
-0.906127 0.18024 0.382683
-0.923879 0 0.382683
-0.37533 0.074658 -0.92388
-0.382683 0 -0.92388
-0.980785 0 0.19509
-0.653281 0.270598 -0.707107
-0.653281 0.270598 0.707107
-0.768177 0.31819 0.55557
-0.513279 0.212607 -0.83147
-0.853553 0.353553 0.382683
-0.353553 0.146447 -0.92388
-0.906127 0.37533 0.19509
-0.18024 0.074658 -0.980785
-0.923878 0.382683 0
-0.906127 0.37533 -0.19509
-0.353553 0.146447 0.92388
-0.853553 0.353553 -0.382683
-0.513279 0.212607 0.83147
-0.768177 0.31819 -0.55557
-0.162212 0.108386 -0.980785
-0.815493 0.544895 -0.19509
-0.768177 0.51328 -0.382683
-0.461939 0.308658 0.83147
-0.691341 0.46194 -0.55557
-0.587938 0.392847 0.707107
-0.587938 0.392847 -0.707107
-0.691341 0.46194 0.55557
-0.461939 0.308658 -0.83147
-0.768177 0.51328 0.382683
-0.318189 0.212607 -0.92388
-0.815493 0.544895 0.19509
-0.831468 0.55557 0
-0.5 0.5 0.707107
-0.587937 0.587938 0.55557
-0.5 0.5 -0.707107
-0.392847 0.392847 -0.83147
-0.653281 0.653281 0.382683
-0.270598 0.270598 -0.92388
-0.693519 0.69352 0.19509
-0.13795 0.13795 -0.980785
-0.707106 0.707106 0
-0.693519 0.69352 -0.19509
-0.653281 0.653281 -0.382683
-0.587937 0.587938 -0.55557
-0.544895 0.815493 -0.19509
-0.51328 0.768177 -0.382683
-0.461939 0.691341 -0.55557
-0.392847 0.587938 -0.707107
-0.308658 0.461939 -0.83147
-0.51328 0.768177 0.382683
-0.212607 0.31819 -0.92388
-0.544895 0.815493 0.19509
-0.108386 0.162212 -0.980785
-0.555569 0.831469 0
-0.270598 0.653281 -0.707107
-0.212607 0.513279 -0.83147
-0.146446 0.353553 -0.92388
-0.37533 0.906127 0.19509
-0.074658 0.18024 -0.980785
-0.382683 0.923879 0
0 0 -1
-0.37533 0.906127 -0.19509
-0.353553 0.853553 -0.382683
-0.318189 0.768177 -0.55557
-0.18024 0.906127 -0.382683
-0.162211 0.815493 -0.55557
-0.13795 0.69352 -0.707107
-0.108386 0.544895 -0.83147
-0.074658 0.37533 -0.92388
-0.03806 0.191342 -0.980785
-0.191341 0.961939 -0.19509
0.5 1.42388 0.882683
0.662212 1.31549 1.05557
0.68024 1.40613 0.882683
0.5 1.05557 -0.33147
0.574658 0.87533 -0.42388
0.5 0.882683 -0.42388
0.5 1.48079 0.69509
0.691342 1.46194 0.69509
0.53806 0.691342 -0.480785
0.69509 1.48079 0.5
0.5 1.5 0.5
0.5 0.69509 1.48079
0.53806 0.691342 1.48079
0.691342 1.46194 0.30491
0.5 1.48079 0.30491
0.5 0.882683 1.42388
0.574658 0.87533 1.42388
0.68024 1.40613 0.117317
0.5 1.42388 0.117317
0.5 1.05557 1.33147
0.608386 1.04489 1.33147
0.662212 1.31549 -0.05557
0.5 1.33147 -0.05557
0.5 1.20711 1.20711
0.63795 1.19352 1.20711
0.63795 1.19352 -0.207107
0.5 1.20711 -0.207107
0.5 1.33147 1.05557
0.608386 1.04489 -0.33147
0.770598 1.15328 -0.207107
0.81819 1.26818 1.05557
0.712608 1.01328 -0.33147
0.853553 1.35355 0.882683
0.646447 0.853553 -0.42388
0.87533 1.40613 0.69509
0.574658 0.68024 -0.480785
0.882683 1.42388 0.5
0.574658 0.68024 1.48079
0.87533 1.40613 0.30491
0.646447 0.853553 1.42388
0.853553 1.35355 0.117317
0.712608 1.01328 1.33147
0.81819 1.26818 -0.05557
0.770598 1.15328 1.20711
0.608386 0.662212 -0.480785
1.05557 1.33147 0.5
1.04489 1.31549 0.30491
0.712608 0.81819 1.42388
1.01328 1.26818 0.117317
0.808658 0.96194 1.33147
0.96194 1.19134 -0.05557
0.892847 1.08794 1.20711
0.892847 1.08794 -0.207107
0.96194 1.19134 1.05557
0.808658 0.96194 -0.33147
1.01328 1.26818 0.882683
0.712608 0.81819 -0.42388
1.04489 1.31549 0.69509
0.608386 0.662212 1.48079
0.892847 0.892847 -0.33147
1.15328 1.15328 0.882683
0.770598 0.770598 -0.42388
1.19352 1.19352 0.69509
0.63795 0.63795 -0.480785
1.20711 1.20711 0.5
0.63795 0.63795 1.48079
1.19352 1.19352 0.30491
0.770598 0.770598 1.42388
1.15328 1.15328 0.117317
0.892847 0.892847 1.33147
1.08794 1.08794 -0.05557
1 1 1.20711
1 1 -0.207107
1.08794 1.08794 1.05557
0.81819 0.712608 1.42388
1.26818 1.01328 0.117317
0.96194 0.808658 1.33147
1.19134 0.96194 -0.05557
1.08794 0.892847 1.20711
1.08794 0.892847 -0.207107
1.19134 0.96194 1.05557
0.96194 0.808658 -0.33147
1.26818 1.01328 0.882683
0.81819 0.712608 -0.42388
1.31549 1.04489 0.69509
0.662212 0.608386 -0.480785
1.33147 1.05557 0.5
0.662212 0.608386 1.48079
1.31549 1.04489 0.30491
1.35355 0.853553 0.882683
0.853553 0.646447 -0.42388
1.40613 0.87533 0.69509
0.68024 0.574658 -0.480785
1.42388 0.882683 0.5
0.68024 0.574658 1.48079
1.40613 0.87533 0.30491
0.853553 0.646447 1.42388
1.35355 0.853553 0.117317
1.01328 0.712607 1.33147
1.26818 0.81819 -0.05557
1.15328 0.770598 1.20711
1.15328 0.770598 -0.207107
1.26818 0.81819 1.05557
1.01328 0.712607 -0.33147
1.40613 0.68024 0.117317
1.04489 0.608386 1.33147
1.31549 0.662212 -0.05557
1.19352 0.63795 1.20711
1.19352 0.63795 -0.207107
1.31549 0.662212 1.05557
1.04489 0.608386 -0.33147
1.40613 0.68024 0.882683
0.87533 0.574658 -0.42388
1.46194 0.691342 0.69509
0.691342 0.53806 -0.480785
1.48079 0.69509 0.5
0.691342 0.53806 1.48079
1.46194 0.691342 0.30491
0.87533 0.574658 1.42388
0.882683 0.5 -0.42388
1.42388 0.5 0.882683
1.48079 0.5 0.69509
1.5 0.5 0.5
0.69509 0.5 1.48079
1.48079 0.5 0.30491
0.882683 0.5 1.42388
1.42388 0.5 0.117317
1.05557 0.5 1.33147
1.33147 0.5 -0.05557
1.20711 0.5 1.20711
1.20711 0.5 -0.207107
1.33147 0.5 1.05557
1.05557 0.5 -0.33147
1.04489 0.391614 1.33147
1.40613 0.31976 0.117317
1.31549 0.337788 -0.05557
1.19352 0.36205 1.20711
1.19352 0.36205 -0.207107
1.31549 0.337788 1.05557
1.04489 0.391614 -0.33147
1.40613 0.31976 0.882683
0.87533 0.425342 -0.42388
1.46194 0.308658 0.69509
1.48079 0.30491 0.5
0.691342 0.46194 1.48079
1.46194 0.308658 0.30491
0.87533 0.425342 1.42388
1.35355 0.146447 0.882683
1.40613 0.12467 0.69509
0.853553 0.353553 -0.42388
1.42388 0.117317 0.5
0.68024 0.425342 1.48079
1.40613 0.12467 0.30491
0.853553 0.353553 1.42388
1.35355 0.146447 0.117317
1.01328 0.287392 1.33147
1.26818 0.18181 -0.05557
1.15328 0.229402 1.20711
1.15328 0.229402 -0.207107
1.26818 0.18181 1.05557
1.01328 0.287392 -0.33147
1.26818 -0.01328 0.117317
1.19134 0.03806 -0.05557
1.08794 0.107153 1.20711
1.08794 0.107153 -0.207107
1.19134 0.03806 1.05557
0.96194 0.191342 -0.33147
1.26818 -0.01328 0.882683
1.31549 -0.044895 0.69509
1.33147 -0.05557 0.5
0.662212 0.391614 1.48079
1.31549 -0.044895 0.30491
0.81819 0.287392 1.42388
0.96194 0.191342 1.33147
1.19352 -0.19352 0.69509
1.20711 -0.207107 0.5
0.5 0.5 1.5
0.63795 0.36205 1.48079
1.19352 -0.19352 0.30491
0.770598 0.229402 1.42388
1.15328 -0.153281 0.117317
0.892847 0.107153 1.33147
1.08794 -0.087938 -0.05557
1 0 1.20711
1 0 -0.207107
1.08794 -0.087938 1.05557
1.15328 -0.153281 0.882683
0.892847 -0.087938 1.20711
0.96194 -0.191342 1.05557
1.01328 -0.268178 0.882683
1.04489 -0.315493 0.69509
1.05557 -0.331469 0.5
0.608386 0.337788 1.48079
1.04489 -0.315493 0.30491
0.712607 0.18181 1.42388
1.01328 -0.268178 0.117317
0.808658 0.03806 1.33147
0.574658 0.31976 1.48079
0.87533 -0.406127 0.30491
0.646447 0.146447 1.42388
0.712607 -0.01328 1.33147
0.770598 -0.153281 1.20711
0.818189 -0.268178 1.05557
0.853553 -0.353553 0.882683
0.87533 -0.406127 0.69509
0.882683 -0.423879 0.5
0.63795 -0.19352 1.20711
0.662212 -0.315493 1.05557
0.68024 -0.406127 0.882683
0.691342 -0.461939 0.69509
0.53806 0.308658 1.48079
0.574658 0.12467 1.42388
0.608386 -0.044895 1.33147
0.5 0.117317 1.42388
0.5 -0.05557 1.33147
0.5 -0.207107 1.20711
0.5 -0.331469 1.05557
0.5 -0.423879 0.882683
0.5 0.30491 1.48079
0.31976 -0.406127 0.882683
0.46194 0.308658 1.48079
0.425342 0.12467 1.42388
0.391614 -0.044895 1.33147
0.36205 -0.19352 1.20711
0.337788 -0.315493 1.05557
0.425342 0.31976 1.48079
0.353553 0.146447 1.42388
0.287392 -0.01328 1.33147
0.229402 -0.153281 1.20711
0.18181 -0.268177 1.05557
0.391614 0.337788 1.48079
0.287392 0.18181 1.42388
0.191342 0.038061 1.33147
0.107153 -0.087938 1.20711
0.03806 -0.191341 1.05557
0.107153 0.107153 1.33147
0 0 1.20711
-0.087938 -0.087937 1.05557
0.36205 0.36205 1.48079
0.229402 0.229402 1.42388
0.337788 0.391614 1.48079
0.18181 0.287393 1.42388
0.03806 0.191342 1.33147
-0.087938 0.107153 1.20711
-0.191341 0.038061 1.05557
-0.153281 0.229402 1.20711
-0.268177 0.181811 1.05557
0.31976 0.425342 1.48079
0.146447 0.353553 1.42388
-0.01328 0.287393 1.33147
0.308658 0.46194 1.48079
0.12467 0.425342 1.42388
-0.044895 0.391614 1.33147
-0.19352 0.36205 1.20711
-0.315493 0.337789 1.05557
-0.406127 0.31976 0.882683
-0.207107 0.5 1.20711
0.30491 0.5 1.48079
-0.461939 0.691342 0.69509
0.308658 0.53806 1.48079
0.12467 0.574658 1.42388
0.117317 0.5 1.42388
-0.05557 0.5 1.33147
-0.044895 0.608386 1.33147
-0.19352 0.63795 1.20711
-0.331469 0.5 1.05557
-0.315493 0.662212 1.05557
-0.406127 0.68024 0.882683
-0.423879 0.5 0.882683
-0.153281 0.770598 1.20711
-0.268177 0.81819 1.05557
-0.353553 0.853553 0.882683
-0.406127 0.87533 0.69509
-0.423878 0.882684 0.5
0.31976 0.574658 1.48079
-0.406127 0.87533 0.30491
0.146447 0.646447 1.42388
-0.013279 0.712608 1.33147
0.337788 0.608386 1.48079
-0.315493 1.04489 0.30491
0.181811 0.712607 1.42388
-0.268177 1.01328 0.117317
0.038061 0.808658 1.33147
-0.087938 0.892847 1.20711
-0.191341 0.96194 1.05557
-0.268177 1.01328 0.882683
-0.315493 1.04489 0.69509
-0.331468 1.05557 0.5
0 1 1.20711
-0.087937 1.08794 1.05557
0 1 -0.207107
-0.153281 1.15328 0.882683
-0.193519 1.19352 0.69509
-0.207106 1.20711 0.5
0.36205 0.63795 1.48079
-0.193519 1.19352 0.30491
0.229402 0.770598 1.42388
-0.153281 1.15328 0.117317
0.107153 0.892847 1.33147
-0.087937 1.08794 -0.05557
-0.044895 1.31549 0.30491
0.287393 0.81819 1.42388
-0.01328 1.26818 0.117317
0.191342 0.961939 1.33147
0.038061 1.19134 -0.05557
0.107153 1.08794 1.20711
0.107153 1.08794 -0.207107
0.038061 1.19134 1.05557
0.191342 0.961939 -0.33147
-0.01328 1.26818 0.882683
-0.044895 1.31549 0.69509
-0.055569 1.33147 0.5
0.391614 0.662212 1.48079
0.229402 1.15328 -0.207107
0.287393 1.01328 -0.33147
0.146447 1.35355 0.882683
0.353554 0.853553 -0.42388
0.12467 1.40613 0.69509
0.117317 1.42388 0.5
0.425342 0.68024 1.48079
0.12467 1.40613 0.30491
0.353554 0.853553 1.42388
0.146447 1.35355 0.117317
0.287393 1.01328 1.33147
0.181811 1.26818 -0.05557
0.229402 1.15328 1.20711
0.181811 1.26818 1.05557
0.31976 1.40613 0.117317
0.425342 0.87533 1.42388
0.391614 1.04489 1.33147
0.337789 1.31549 -0.05557
0.36205 1.19352 1.20711
0.36205 1.19352 -0.207107
0.337789 1.31549 1.05557
0.391614 1.04489 -0.33147
0.31976 1.40613 0.882683
0.425342 0.87533 -0.42388
0.308659 1.46194 0.69509
0.30491 1.48078 0.5
0.46194 0.691342 1.48079
0.308659 1.46194 0.30491
0.00580569 0.970813 -0.226077
0.0416066 0.958393 -0.255396
0.18234 0.916687 -0.347191
0.449251 0.755131 -0.461056
0.487348 0.729368 -0.470009
0.543176 0.675183 -0.482168
0.59035 0.63522 -0.483982
0.614995 0.614995 -0.483982
0.729368 0.487348 -0.470009
0.709768 0.50608 -0.476151
0.692843 0.522818 -0.480785
0.795935 0.392052 -0.444093
0.830864 0.344155 -0.428629
0.906127 0.204676 -0.359186
0.88957 0.239698 -0.377993
0.885042 0.249749 -0.382683
0.925002 0.146333 -0.33147
0.942236 0.0922835 -0.292208
0.977259 -0.114325 -0.116565
0.977735 -0.030969 -0.19509
0.97453 -0.0150998 -0.210806
0.914547 -0.347573 0.19509
0.89541 -0.370891 0.233328
0.977668 -0.19447 -0.0322666
0.975175 -0.208633 -0.0146584
0.768178 -0.452146 0.436859
0.791555 -0.442005 0.407087
0.810718 -0.433693 0.382683
0.520411 -0.475129 0.707107
0.679073 -0.476889 0.55557
0.614327 -0.477259 0.616563
0.710625 -0.474825 0.51218
0.688275 -0.477355 0.541642
0.31766 -0.416686 0.847191
0.260302 -0.38957 0.877993
0.458393 -0.458393 0.755396
0.404315 -0.441151 0.794679
0.173779 -0.338944 0.92388
0.250251 -0.385042 0.882683
0.212607 -0.36235 0.902962
0.128718 -0.310753 0.937933
0.074658 -0.272187 0.953965
0.0507484 -0.25513 0.961056
-0.0228167 -0.192843 0.980785
-0.00607975 -0.209768 0.976151
0 -0.215916 0.974468
-0.0360586 -0.18128 0.981795
-0.0903502 -0.135219 0.983982
-0.114994 -0.114994 0.983982
-0.135219 -0.0903502 0.983982
-0.1566 -0.0648659 0.983305
-0.192843 -0.0228163 0.980785
-0.295934 0.107947 0.944093
-0.338944 0.173779 0.92388
-0.318766 0.139527 0.934226
-0.407292 0.297788 0.857862
-0.458393 0.458393 0.755396
-0.475129 0.520411 0.707107
-0.47453 0.5151 0.710806
-0.477258 0.614325 0.616565
-0.477409 0.587938 0.641423
-0.476889 0.679072 0.55557
-0.474824 0.710625 0.51218
-0.39541 0.870891 0.266672
-0.347573 0.914547 0.19509
-0.268177 0.952146 0.0631409
-0.218598 0.973653 0
-0.179073 0.976889 -0.05557
-0.188275 0.977354 -0.0416427
0.326222 0.838944 -0.42388
0.344155 0.830864 -0.428629
0.5 0.715916 -0.474467
0.522817 0.692843 -0.480785
0.86235 0.287392 -0.402962
0.974825 -0.210625 -0.0121808
0.847574 -0.414547 0.30491
-0.406127 0.295324 0.859186
-0.477667 0.694471 0.532264
-0.429732 0.818342 0.366594
0.536059 0.681281 -0.481795
0.564866 0.6566 -0.483305
0.63522 0.590351 -0.483982
0.656601 0.564866 -0.483305
0.663731 0.556543 -0.482869
0.681281 0.536059 -0.481795
0.740004 0.471619 -0.466313
0.715916 0.5 -0.474467
0.810753 0.371281 -0.437933
0.838944 0.326221 -0.42388
0.818766 0.360473 -0.434226
0.937495 0.107153 -0.303009
0.97741 -0.087938 -0.141423
0.975129 -0.0204107 -0.207107
0.97689 -0.179073 -0.05557
0.918112 -0.340712 0.180611
0.929732 -0.318343 0.133408
0.933693 -0.310718 0.117317
0.69447 -0.477668 0.532265
0.718597 -0.473654 0.5
0.857833 -0.406127 0.288085
0.870891 -0.395411 0.266672
0.530969 -0.477735 0.69509
0.5 -0.472827 0.721322
0.392847 -0.437494 0.803009
0.353667 -0.425002 0.83147
0.18522 -0.345841 0.917716
0.0690376 -0.268178 0.955632
0.139527 -0.318766 0.934226
0.155845 -0.330864 0.928629
0.0126522 -0.229367 0.970009
-0.0431764 -0.175182 0.982168
-0.163731 -0.0565429 0.982869
-0.114995 -0.114994 0.983982
-0.229367 0.0126527 0.970009
-0.230818 0.0147991 0.969505
-0.255129 0.0507482 0.961056
-0.295935 0.107948 0.944093
-0.385041 0.25025 0.882683
-0.330864 0.155845 0.928629
-0.416686 0.31766 0.847191
-0.442235 0.407717 0.792208
-0.477735 0.530969 0.69509
-0.475175 0.708632 0.514657
-0.473653 0.718597 0.5
-0.418111 0.840712 0.319389
-0.414547 0.847573 0.30491
-0.357833 0.906127 0.211915
-0.370891 0.89541 0.233328
-0.310717 0.933693 0.117317
-0.210624 0.974824 -0.0121826
-0.0204108 0.975129 -0.207107
-0.11433 0.977258 -0.116561
-0.0309691 0.977735 -0.19509
0.146334 0.925002 -0.33147
0.107153 0.937494 -0.303009
0.24975 0.885041 -0.382683
0.239698 0.88957 -0.377993
0.425342 0.772188 -0.453965
0.430962 0.768178 -0.455632
0.4852 0.73082 -0.469504
0.755131 0.449251 -0.461056
0.958394 0.0416065 -0.255396
0.916687 0.18234 -0.347191
0.972827 0 -0.221322
0.973654 -0.218598 0
0.494194 -0.470813 0.726077
0.0283806 -0.240004 0.966313
-0.0648659 -0.1566 0.983305
-0.18128 -0.0360586 0.981795
-0.215915 0 0.974468
-0.310752 0.128718 0.937933
-0.389571 0.260303 0.877992
-0.425002 0.353666 0.83147
-0.472827 0.5 0.721322
-0.433693 0.810717 0.382683
-0.291555 0.942005 0.0929132
0 0.972827 -0.221322
-0.19447 0.977667 -0.0322666
0.0956855 0.941151 -0.294679
0.371282 0.810753 -0.437933
3 0 1 2
3 2 3 4
3 330 4 3
3 6 7 8
3 8 9 10
3 10 11 0
3 7 12 9
3 11 12 13
3 1 13 14
3 1 15 3
3 330 3 15
3 5 16 7
3 330 15 17
3 12 18 19
3 13 19 20
3 13 21 14
3 14 17 15
3 19 22 20
3 20 23 21
3 21 24 17
3 330 17 24
3 18 26 19
3 25 28 26
3 26 29 22
3 23 29 30
3 23 31 24
3 330 24 31
3 29 32 30
3 31 32 33
3 330 31 33
3 27 35 28
3 28 36 29
3 34 37 38
3 34 39 35
3 36 39 40
3 32 40 41
3 32 42 33
3 330 33 42
3 40 43 41
3 41 44 42
3 330 42 44
3 38 45 46
3 38 47 39
3 40 47 48
3 46 49 50
3 46 51 47
3 48 51 52
3 48 53 43
3 43 54 44
3 330 44 54
3 54 57 58
3 330 54 58
3 55 61 49
3 50 61 62
3 50 63 51
3 52 63 64
3 52 57 53
3 62 65 66
3 62 67 63
3 64 67 68
3 64 70 57
3 56 69 71
3 57 72 58
3 59 71 73
3 330 58 72
3 59 74 60
3 60 65 61
3 72 75 76
3 73 77 78
3 330 72 76
3 73 79 74
3 74 80 65
3 66 80 81
3 66 83 67
3 67 85 68
3 70 85 75
3 71 86 77
3 81 87 83
3 84 88 89
3 85 87 90
3 84 91 86
3 85 92 75
3 77 91 93
3 75 94 76
3 78 93 95
3 330 76 94
3 78 96 79
3 79 97 80
3 81 97 99
3 330 94 100
3 95 101 96
3 96 103 97
3 99 103 105
3 98 106 88
3 99 107 87
3 89 106 108
3 90 107 109
3 89 110 91
3 90 111 92
3 93 110 112
3 92 100 94
3 95 112 113
3 108 114 115
3 109 116 117
3 108 118 110
3 109 119 111
3 112 118 120
3 111 121 100
3 113 120 122
3 330 100 121
3 113 123 101
3 101 125 103
3 102 126 104
3 105 125 127
3 104 114 106
3 105 116 107
3 122 128 123
3 123 130 125
3 126 129 131
3 127 130 132
3 126 133 114
3 127 134 116
3 115 133 135
3 117 134 136
3 115 137 118
3 117 138 119
3 120 137 139
3 121 138 140
3 122 139 141
3 330 121 140
3 136 142 143
3 135 144 137
3 136 145 138
3 139 144 146
3 138 147 140
3 141 146 148
3 330 140 147
3 141 150 128
3 128 152 130
3 129 153 131
3 132 152 154
3 131 155 133
3 132 142 134
3 135 155 156
3 151 157 158
3 150 159 152
3 151 160 153
3 154 159 161
3 153 162 155
3 154 163 142
3 156 162 164
3 143 163 165
3 156 166 144
3 143 167 145
3 146 166 168
3 145 169 147
3 148 168 170
3 330 147 169
3 148 171 150
3 164 172 166
3 165 173 167
3 168 172 174
3 169 173 175
3 170 174 176
3 330 169 175
3 170 178 171
3 158 177 179
3 171 180 159
3 158 181 160
3 161 180 182
3 160 183 162
3 161 184 163
3 164 183 185
3 165 184 186
3 178 187 180
3 179 188 181
3 182 187 189
3 181 190 183
3 182 191 184
3 185 190 192
3 186 191 193
3 185 194 172
3 186 195 173
3 174 194 196
3 175 195 197
3 176 196 198
3 330 175 197
3 176 200 178
3 177 201 179
3 193 202 195
3 196 203 204
3 195 205 197
3 198 204 206
3 330 197 205
3 198 208 200
3 199 209 201
3 200 210 187
3 201 211 188
3 189 210 212
3 188 213 190
3 189 214 191
3 192 213 215
3 193 214 216
3 192 203 194
3 212 217 218
3 211 219 213
3 212 220 214
3 213 221 215
3 216 220 222
3 215 223 203
3 216 224 202
3 204 223 225
3 202 226 205
3 206 225 227
3 330 205 226
3 206 229 208
3 207 230 209
3 208 217 210
3 209 231 211
3 224 232 226
3 227 233 234
3 330 226 232
3 227 236 229
3 228 237 230
3 229 238 217
3 230 239 231
3 218 238 240
3 231 241 219
3 218 242 220
3 221 241 243
3 222 242 244
3 221 245 223
3 222 246 224
3 225 245 233
3 239 247 241
3 240 248 242
3 243 247 266
3 244 248 268
3 243 271 245
3 244 273 246
3 233 271 274
3 246 249 232
3 234 274 251
3 330 232 249
3 234 250 236
3 235 257 237
3 236 259 238
3 239 257 260
3 240 259 262
3 251 252 253
3 330 249 254
3 251 255 250
3 250 258 259
3 260 256 261
3 262 258 263
3 260 264 247
3 262 265 248
3 266 264 267
3 268 265 269
3 266 270 271
3 268 272 273
3 274 270 252
3 273 254 249
3 263 275 265
3 267 276 277
3 269 275 278
3 267 279 270
3 269 280 272
3 252 279 281
3 272 282 254
3 253 281 283
3 330 254 282
3 253 284 255
3 255 286 258
3 261 285 287
3 263 286 288
3 261 276 264
3 330 282 289
3 283 290 284
3 284 291 286
3 285 292 287
3 288 291 293
3 287 294 276
3 288 295 275
3 277 294 296
3 278 295 297
3 277 298 279
3 280 297 299
3 281 298 300
3 280 289 282
3 283 300 301
3 296 302 303
3 297 304 305
3 296 306 298
3 297 307 299
3 300 306 308
3 299 309 289
3 301 308 310
3 330 289 309
3 301 311 290
3 290 312 291
3 293 312 313
3 292 302 294
3 293 304 295
3 310 314 311
3 311 315 312
3 313 315 316
3 313 317 304
3 305 317 318
3 303 319 306
3 305 320 307
3 308 319 321
3 307 322 309
3 310 321 323
3 330 309 322
3 318 324 325
3 318 326 320
3 320 328 322
3 323 327 329
3 330 322 328
3 323 331 314
3 314 332 315
3 316 332 333
3 316 324 317
3 331 334 332
3 333 334 335
3 333 336 324
3 325 336 337
3 325 338 326
3 328 338 339
3 330 328 339
3 329 340 331
3 337 2 338
3 338 4 339
3 330 339 4
3 340 6 334
3 334 8 335
3 335 10 336
3 337 10 0
3 0 11 1
3 2 1 3
3 6 5 7
3 8 7 9
3 10 9 11
3 7 16 12
3 11 9 12
3 1 11 13
3 1 14 15
3 12 16 18
3 13 12 19
3 13 20 21
3 14 21 17
3 19 26 22
3 20 22 23
3 21 23 24
3 18 25 26
3 25 27 28
3 26 28 29
3 23 22 29
3 23 30 31
3 29 36 32
3 31 30 32
3 27 34 35
3 28 35 36
3 34 38 39
3 36 35 39
3 32 36 40
3 32 41 42
3 40 48 43
3 41 43 44
3 38 37 45
3 38 46 47
3 40 39 47
3 46 45 49
3 46 50 51
3 48 47 51
3 48 52 53
3 43 53 54
3 54 53 57
3 55 60 61
3 50 49 61
3 50 62 63
3 52 51 63
3 52 64 57
3 62 61 65
3 62 66 67
3 64 63 67
3 64 68 70
3 57 70 72
3 59 56 71
3 59 73 74
3 60 74 65
3 72 70 75
3 73 71 77
3 73 78 79
3 74 79 80
3 66 65 80
3 66 81 83
3 67 83 85
3 70 68 85
3 71 69 86
3 81 99 87
3 84 82 88
3 85 83 87
3 84 89 91
3 85 90 92
3 77 86 91
3 75 92 94
3 78 77 93
3 78 95 96
3 79 96 97
3 81 80 97
3 95 113 101
3 96 101 103
3 99 97 103
3 98 104 106
3 99 105 107
3 89 88 106
3 90 87 107
3 89 108 110
3 90 109 111
3 93 91 110
3 92 111 100
3 95 93 112
3 108 106 114
3 109 107 116
3 108 115 118
3 109 117 119
3 112 110 118
3 111 119 121
3 113 112 120
3 113 122 123
3 101 123 125
3 102 124 126
3 105 103 125
3 104 126 114
3 105 127 116
3 122 141 128
3 123 128 130
3 126 124 129
3 127 125 130
3 126 131 133
3 127 132 134
3 115 114 133
3 117 116 134
3 115 135 137
3 117 136 138
3 120 118 137
3 121 119 138
3 122 120 139
3 136 134 142
3 135 156 144
3 136 143 145
3 139 137 144
3 138 145 147
3 141 139 146
3 141 148 150
3 128 150 152
3 129 151 153
3 132 130 152
3 131 153 155
3 132 154 142
3 135 133 155
3 151 149 157
3 150 171 159
3 151 158 160
3 154 152 159
3 153 160 162
3 154 161 163
3 156 155 162
3 143 142 163
3 156 164 166
3 143 165 167
3 146 144 166
3 145 167 169
3 148 146 168
3 148 170 171
3 164 185 172
3 165 186 173
3 168 166 172
3 169 167 173
3 170 168 174
3 170 176 178
3 158 157 177
3 171 178 180
3 158 179 181
3 161 159 180
3 160 181 183
3 161 182 184
3 164 162 183
3 165 163 184
3 178 200 187
3 179 201 188
3 182 180 187
3 181 188 190
3 182 189 191
3 185 183 190
3 186 184 191
3 185 192 194
3 186 193 195
3 174 172 194
3 175 173 195
3 176 174 196
3 176 198 200
3 177 199 201
3 193 216 202
3 196 194 203
3 195 202 205
3 198 196 204
3 198 206 208
3 199 207 209
3 200 208 210
3 201 209 211
3 189 187 210
3 188 211 213
3 189 212 214
3 192 190 213
3 193 191 214
3 192 215 203
3 212 210 217
3 211 231 219
3 212 218 220
3 213 219 221
3 216 214 220
3 215 221 223
3 216 222 224
3 204 203 223
3 202 224 226
3 206 204 225
3 206 227 229
3 207 228 230
3 208 229 217
3 209 230 231
3 224 246 232
3 227 225 233
3 227 234 236
3 228 235 237
3 229 236 238
3 230 237 239
3 218 217 238
3 231 239 241
3 218 240 242
3 221 219 241
3 222 220 242
3 221 243 245
3 222 244 246
3 225 223 245
3 239 260 247
3 240 262 248
3 243 241 247
3 244 242 248
3 243 266 271
3 244 268 273
3 233 245 271
3 246 273 249
3 234 233 274
3 234 251 250
3 236 250 259
3 239 237 257
3 240 238 259
3 251 274 252
3 251 253 255
3 250 255 258
3 260 257 256
3 262 259 258
3 260 261 264
3 262 263 265
3 266 247 264
3 268 248 265
3 266 267 270
3 268 269 272
3 274 271 270
3 273 272 254
3 263 288 275
3 267 264 276
3 269 265 275
3 267 277 279
3 269 278 280
3 252 270 279
3 272 280 282
3 253 252 281
3 253 283 284
3 255 284 286
3 261 256 285
3 263 258 286
3 261 287 276
3 283 301 290
3 284 290 291
3 288 286 291
3 287 292 294
3 288 293 295
3 277 276 294
3 278 275 295
3 277 296 298
3 280 278 297
3 281 279 298
3 280 299 289
3 283 281 300
3 296 294 302
3 297 295 304
3 296 303 306
3 297 305 307
3 300 298 306
3 299 307 309
3 301 300 308
3 301 310 311
3 290 311 312
3 293 291 312
3 293 313 304
3 310 323 314
3 311 314 315
3 313 312 315
3 313 316 317
3 305 304 317
3 305 318 320
3 308 306 319
3 307 320 322
3 310 308 321
3 318 317 324
3 318 325 326
3 320 326 328
3 323 321 327
3 323 329 331
3 314 331 332
3 316 315 332
3 316 333 324
3 331 340 334
3 333 332 334
3 333 335 336
3 325 324 336
3 325 337 338
3 328 326 338
3 337 0 2
3 338 2 4
3 334 6 8
3 335 8 10
3 337 336 10
3 341 342 343
3 344 345 346
3 347 343 348
3 347 350 351
3 352 517 353
3 351 354 355
3 356 353 357
3 355 358 359
3 360 357 361
3 359 362 363
3 364 361 365
3 363 366 367
3 368 365 342
3 367 369 344
3 362 370 366
3 365 371 342
3 369 370 372
3 342 373 343
3 345 372 374
3 348 373 375
3 345 376 349
3 348 377 350
3 353 517 378
3 350 379 354
3 353 380 357
3 354 381 358
3 357 382 361
3 358 383 362
3 361 384 365
3 379 386 387
3 378 388 380
3 379 389 381
3 380 390 382
3 383 389 391
3 382 392 384
3 370 391 393
3 384 394 371
3 372 393 395
3 371 396 373
3 372 397 374
3 373 398 375
3 374 385 376
3 375 386 377
3 378 517 399
3 393 400 395
3 394 401 396
3 395 402 397
3 398 401 403
3 397 404 385
3 386 403 405
3 399 517 406
3 386 407 387
3 399 408 388
3 387 409 389
3 388 410 390
3 391 409 411
3 390 412 392
3 391 413 393
3 392 414 394
3 406 415 408
3 407 416 409
3 408 417 410
3 411 416 418
3 410 419 412
3 411 420 413
3 414 419 421
3 413 422 400
3 414 423 401
3 402 422 424
3 403 423 425
3 402 426 404
3 405 425 427
3 406 517 428
3 405 429 407
3 421 430 423
3 422 431 424
3 425 430 432
3 426 431 433
3 427 432 434
3 428 517 435
3 427 436 429
3 428 437 415
3 429 438 416
3 415 439 417
3 418 438 440
3 417 441 419
3 418 442 420
3 421 441 443
3 420 444 422
3 436 445 438
3 437 446 439
3 440 445 447
3 439 448 441
3 440 449 442
3 443 448 450
3 444 449 451
3 443 452 430
3 431 451 453
3 432 452 454
3 431 455 433
3 434 454 456
3 435 517 457
3 434 458 436
3 437 457 459
3 451 460 453
3 454 461 462
3 456 462 463
3 457 517 464
3 456 465 458
3 459 464 466
3 458 467 445
3 459 468 446
3 447 467 469
3 446 470 448
3 447 471 449
3 450 470 472
3 451 471 473
3 450 461 452
3 466 474 468
3 469 475 476
3 468 477 470
3 469 478 471
3 472 477 479
3 473 478 480
3 472 481 461
3 473 482 460
3 462 481 483
3 463 483 484
3 464 517 485
3 463 486 465
3 464 487 466
3 465 475 467
3 483 488 489
3 484 489 491
3 485 517 492
3 484 493 486
3 485 494 487
3 486 495 475
3 474 494 496
3 476 495 497
3 474 498 477
3 476 499 478
3 479 498 500
3 480 499 501
3 479 488 481
3 480 490 482
3 497 502 503
3 496 504 498
3 497 505 499
3 500 504 506
3 501 505 507
3 500 508 488
3 489 508 509
3 491 509 510
3 492 517 511
3 491 512 493
3 492 513 494
3 493 502 495
3 496 513 514
3 510 515 516
3 511 517 518
3 510 519 512
3 511 520 513
3 512 521 502
3 513 522 514
3 503 521 523
3 514 524 504
3 503 525 505
3 506 524 526
3 506 527 508
3 509 527 515
3 526 528 529
3 526 530 527
3 515 530 531
3 516 531 532
3 518 517 533
3 516 534 519
3 520 533 535
3 519 536 521
3 522 535 537
3 522 528 524
3 533 517 538
3 532 539 534
3 533 540 535
3 535 541 537
3 537 542 528
3 529 542 543
3 529 544 530
3 531 544 545
3 532 545 546
3 543 547 548
3 543 549 544
3 545 549 550
3 538 517 551
3 538 552 540
3 540 553 541
3 541 547 542
3 551 554 552
3 553 554 555
3 553 556 547
3 548 556 557
3 548 558 549
3 551 517 559
3 557 560 558
3 559 517 561
3 559 562 554
3 554 563 555
3 555 564 556
3 557 564 565
3 562 566 567
3 562 568 563
3 563 569 564
3 565 569 570
3 561 517 566
3 566 517 571
3 567 571 572
3 567 573 568
3 568 574 569
3 570 574 575
3 572 576 573
3 573 577 574
3 575 577 578
3 571 517 579
3 571 580 572
3 579 517 581
3 579 582 580
3 580 583 576
3 576 584 577
3 578 584 585
3 583 586 584
3 584 587 585
3 581 517 588
3 581 589 582
3 582 590 583
3 588 517 591
3 588 592 589
3 589 593 590
3 590 594 586
3 587 594 595
3 593 597 594
3 595 597 606
3 595 609 596
3 591 517 598
3 591 602 592
3 593 602 603
3 598 517 600
3 598 601 602
3 603 601 604
3 603 605 597
3 606 605 607
3 606 608 609
3 607 610 611
3 607 612 608
3 599 612 613
3 600 517 615
3 600 617 601
3 604 617 618
3 604 610 605
3 615 517 619
3 614 620 616
3 617 619 621
3 617 623 618
3 618 624 610
3 611 624 625
3 611 626 612
3 613 626 627
3 614 627 628
3 625 629 630
3 625 632 626
3 627 632 633
3 628 633 634
3 619 517 635
3 628 636 620
3 619 637 621
3 620 638 622
3 623 637 639
3 623 629 624
3 634 641 636
3 635 642 637
3 636 643 638
3 639 642 644
3 640 643 645
3 639 646 629
3 640 647 631
3 630 646 648
3 630 650 632
3 633 650 651
3 634 651 652
3 635 517 653
3 649 654 655
3 648 656 650
3 651 656 658
3 652 658 659
3 653 517 660
3 652 661 641
3 642 660 662
3 641 663 643
3 642 664 644
3 645 663 665
3 644 666 646
3 645 654 647
3 648 666 667
3 661 668 663
3 664 669 670
3 665 668 671
3 664 672 666
3 665 673 654
3 667 672 674
3 655 673 675
3 667 676 656
3 655 677 657
3 658 676 678
3 659 678 679
3 660 517 680
3 659 681 661
3 660 669 662
3 675 346 677
3 678 341 347
3 679 347 351
3 680 517 352
3 679 355 681
3 669 352 356
3 681 359 668
3 670 356 360
3 668 363 671
3 672 360 364
3 671 367 673
3 674 364 368
3 675 367 344
3 676 368 341
3 341 368 342
3 344 369 345
3 347 341 343
3 346 345 349
3 347 348 350
3 351 350 354
3 356 352 353
3 355 354 358
3 360 356 357
3 359 358 362
3 364 360 361
3 363 362 366
3 368 364 365
3 367 366 369
3 362 383 370
3 365 384 371
3 369 366 370
3 342 371 373
3 345 369 372
3 348 343 373
3 345 374 376
3 348 375 377
3 350 377 379
3 353 378 380
3 354 379 381
3 357 380 382
3 358 381 383
3 361 382 384
3 379 377 386
3 378 399 388
3 379 387 389
3 380 388 390
3 383 381 389
3 382 390 392
3 370 383 391
3 384 392 394
3 372 370 393
3 371 394 396
3 372 395 397
3 373 396 398
3 374 397 385
3 375 398 386
3 393 413 400
3 394 414 401
3 395 400 402
3 398 396 401
3 397 402 404
3 386 398 403
3 386 405 407
3 399 406 408
3 387 407 409
3 388 408 410
3 391 389 409
3 390 410 412
3 391 411 413
3 392 412 414
3 406 428 415
3 407 429 416
3 408 415 417
3 411 409 416
3 410 417 419
3 411 418 420
3 414 412 419
3 413 420 422
3 414 421 423
3 402 400 422
3 403 401 423
3 402 424 426
3 405 403 425
3 405 427 429
3 421 443 430
3 422 444 431
3 425 423 430
3 426 424 431
3 427 425 432
3 427 434 436
3 428 435 437
3 429 436 438
3 415 437 439
3 418 416 438
3 417 439 441
3 418 440 442
3 421 419 441
3 420 442 444
3 436 458 445
3 437 459 446
3 440 438 445
3 439 446 448
3 440 447 449
3 443 441 448
3 444 442 449
3 443 450 452
3 431 444 451
3 432 430 452
3 431 453 455
3 434 432 454
3 434 456 458
3 437 435 457
3 451 473 460
3 454 452 461
3 456 454 462
3 456 463 465
3 459 457 464
3 458 465 467
3 459 466 468
3 447 445 467
3 446 468 470
3 447 469 471
3 450 448 470
3 451 449 471
3 450 472 461
3 466 487 474
3 469 467 475
3 468 474 477
3 469 476 478
3 472 470 477
3 473 471 478
3 472 479 481
3 473 480 482
3 462 461 481
3 463 462 483
3 463 484 486
3 464 485 487
3 465 486 475
3 483 481 488
3 484 483 489
3 484 491 493
3 485 492 494
3 486 493 495
3 474 487 494
3 476 475 495
3 474 496 498
3 476 497 499
3 479 477 498
3 480 478 499
3 479 500 488
3 480 501 490
3 497 495 502
3 496 514 504
3 497 503 505
3 500 498 504
3 501 499 505
3 500 506 508
3 489 488 508
3 491 489 509
3 491 510 512
3 492 511 513
3 493 512 502
3 496 494 513
3 510 509 515
3 510 516 519
3 511 518 520
3 512 519 521
3 513 520 522
3 503 502 521
3 514 522 524
3 503 523 525
3 506 504 524
3 506 526 527
3 509 508 527
3 526 524 528
3 526 529 530
3 515 527 530
3 516 515 531
3 516 532 534
3 520 518 533
3 519 534 536
3 522 520 535
3 523 521 536
3 522 537 528
3 532 546 539
3 533 538 540
3 535 540 541
3 537 541 542
3 529 528 542
3 529 543 544
3 531 530 544
3 532 531 545
3 543 542 547
3 543 548 549
3 545 544 549
3 546 545 550
3 538 551 552
3 540 552 553
3 541 553 547
3 551 559 554
3 553 552 554
3 553 555 556
3 548 547 556
3 548 557 558
3 550 549 558
3 557 565 560
3 559 561 562
3 554 562 563
3 555 563 564
3 557 556 564
3 562 561 566
3 562 567 568
3 563 568 569
3 565 564 569
3 567 566 571
3 567 572 573
3 568 573 574
3 570 569 574
3 572 580 576
3 573 576 577
3 575 574 577
3 571 579 580
3 579 581 582
3 580 582 583
3 576 583 584
3 578 577 584
3 583 590 586
3 584 586 587
3 581 588 589
3 582 589 590
3 588 591 592
3 589 592 593
3 590 593 594
3 587 586 594
3 587 595 596
3 593 603 597
3 595 594 597
3 595 606 609
3 591 598 602
3 593 592 602
3 598 600 601
3 603 602 601
3 603 604 605
3 606 597 605
3 606 607 608
3 607 605 610
3 607 611 612
3 599 608 612
3 600 615 617
3 604 601 617
3 604 618 610
3 614 628 620
3 617 615 619
3 616 620 622
3 617 621 623
3 618 623 624
3 611 610 624
3 611 625 626
3 613 612 626
3 614 613 627
3 625 624 629
3 625 630 632
3 627 626 632
3 628 627 633
3 628 634 636
3 619 635 637
3 620 636 638
3 623 621 637
3 623 639 629
3 634 652 641
3 635 653 642
3 636 641 643
3 639 637 642
3 640 638 643
3 639 644 646
3 640 645 647
3 630 629 646
3 630 648 650
3 633 632 650
3 634 633 651
3 649 647 654
3 648 667 656
3 649 655 657
3 651 650 656
3 652 651 658
3 652 659 661
3 642 653 660
3 641 661 663
3 642 662 664
3 645 643 663
3 644 664 666
3 645 665 654
3 648 646 666
3 661 681 668
3 664 662 669
3 665 663 668
3 664 670 672
3 665 671 673
3 667 666 672
3 655 654 673
3 667 674 676
3 655 675 677
3 658 656 676
3 659 658 678
3 659 679 681
3 660 680 669
3 675 344 346
3 678 676 341
3 679 678 347
3 679 351 355
3 669 680 352
3 681 355 359
3 670 669 356
3 668 359 363
3 672 670 360
3 671 363 367
3 674 672 364
3 675 673 367
3 676 674 368
3 838 682 6
3 682 683 6
3 683 840 6
3 840 5 6
3 684 818 5
3 818 817 5
3 16 820 18
3 685 821 18
3 821 686 18
3 18 820 685
3 18 687 762
3 18 762 688
3 18 688 25
3 688 689 25
3 25 765 27
3 27 768 690
3 27 765 766
3 27 692 691
3 27 766 692
3 27 691 768
3 27 693 34
3 769 771 34
3 34 693 769
3 771 694 34
3 695 37 696
3 696 37 697
3 698 772 37
3 772 45 37
3 824 698 37
3 699 45 772
3 700 55 773
3 773 55 701
3 825 702 45
3 702 49 45
3 703 704 56
3 778 777 59
3 777 56 59
3 826 778 59
3 705 60 55
3 706 60 705
3 707 69 708
3 708 69 709
3 827 82 784
3 784 82 710
3 711 82 84
3 711 712 82
3 713 86 69
3 779 714 86
3 713 779 86
3 786 715 98
3 715 716 98
3 717 88 82
3 785 88 718
3 717 718 88
3 789 102 790
3 790 102 719
3 716 104 98
3 720 721 104
3 716 720 104
3 722 124 102
3 722 723 124
3 724 129 124
3 724 828 129
3 725 728 149
3 726 151 129
3 727 726 129
3 149 792 157
3 149 728 792
3 792 829 157
3 157 729 177
3 157 829 729
3 177 730 199
3 177 729 730
3 199 730 207
3 207 730 794
3 794 731 207
3 207 731 228
3 228 731 732
3 228 793 235
3 793 830 235
3 228 732 793
3 235 830 733
3 795 796 257
3 796 256 257
3 831 795 257
3 734 285 256
3 797 734 256
3 285 800 735
3 285 736 800
3 292 737 801
3 292 801 834
3 738 835 302
3 835 740 302
3 740 739 302
3 303 741 743
3 303 742 741
3 744 805 319
3 805 836 319
3 321 807 745
3 321 806 807
3 321 745 809
3 321 809 327
3 327 808 746
3 329 837 747
3 329 747 748
3 749 813 340
3 813 814 340
3 839 750 340
3 750 749 340
3 840 816 5
3 815 684 5
3 5 816 815
3 5 817 16
3 817 751 16
3 751 752 16
3 16 752 841
3 16 841 819
3 16 819 820
3 18 686 753
3 18 753 754
3 18 754 761
3 18 761 687
3 25 689 763
3 25 763 764
3 25 764 765
3 27 822 693
3 27 767 822
3 27 690 767
3 695 824 37
3 34 770 755
3 34 694 770
3 34 755 697
3 34 697 37
3 699 823 45
3 823 825 45
3 700 775 55
3 775 705 55
3 701 55 49
3 774 701 49
3 702 774 49
3 777 776 56
3 776 703 56
3 706 59 60
3 756 826 59
3 706 756 59
3 707 780 69
3 780 713 69
3 56 782 69
3 69 782 781
3 781 757 69
3 56 704 782
3 757 709 69
3 827 717 82
3 712 783 82
3 783 710 82
3 714 84 86
3 711 84 714
3 786 98 88
3 785 786 88
3 789 722 102
3 721 787 104
3 787 719 104
3 719 102 104
3 723 788 124
3 788 724 124
3 828 791 129
3 791 727 129
3 725 149 151
3 726 725 151
3 235 733 257
3 257 733 831
3 796 797 256
3 734 798 285
3 798 832 285
3 285 832 736
3 285 799 292
3 799 833 292
3 285 735 799
3 292 758 737
3 292 833 758
3 292 802 302
3 802 738 302
3 292 834 802
3 742 302 803
3 303 302 742
3 803 302 739
3 303 743 759
3 303 744 319
3 303 804 744
3 303 759 804
3 321 319 806
3 806 319 760
3 760 319 836
3 327 809 808
3 329 327 810
3 329 810 837
3 810 327 746
3 329 748 811
3 329 811 839
3 329 839 340
3 340 814 6
3 814 812 6
3 812 838 6
3 346 349 754
3 753 346 754
3 761 754 349
3 687 349 376
3 761 349 687
3 762 687 376
3 688 376 385
3 688 762 376
3 689 385 404
3 688 385 689
3 689 404 426
3 763 689 426
3 763 426 433
3 764 763 433
3 765 433 455
3 764 433 765
3 766 765 455
3 453 692 455
3 453 691 692
3 766 455 692
3 460 690 768
3 460 767 690
3 693 490 769
3 501 770 490
3 501 755 770
3 490 771 769
3 505 698 507
3 505 772 698
3 523 773 525
3 773 701 525
3 701 774 525
3 523 536 756
3 705 523 706
3 706 523 756
3 523 705 775
3 534 776 536
3 777 778 536
3 536 776 777
3 546 550 779
3 713 546 779
3 546 713 780
3 546 709 539
3 709 757 539
3 546 708 709
3 539 781 782
3 783 558 710
3 550 558 783
3 710 558 784
3 785 560 786
3 718 560 785
3 786 560 715
3 565 721 720
3 565 787 721
3 565 720 560
3 570 788 723
3 570 723 722
3 570 722 789
3 570 789 790
3 575 726 727
3 575 792 728
3 575 725 726
3 575 728 725
3 575 727 791
3 578 793 732
3 578 732 731
3 578 731 794
3 585 796 795
3 585 797 796
3 585 734 797
3 585 798 734
3 587 596 799
3 735 587 799
3 587 735 800
3 737 596 801
3 758 596 737
3 738 609 835
3 802 609 738
3 741 599 743
3 743 599 759
3 803 608 599
3 739 740 608
3 803 739 608
3 744 804 614
3 804 613 614
3 805 744 614
3 760 616 806
3 806 616 807
3 808 622 746
3 746 622 810
3 616 809 745
3 616 622 809
3 809 622 808
3 747 622 748
3 748 622 811
3 682 631 683
3 750 638 640
3 749 750 640
3 813 631 814
3 814 631 812
3 815 647 649
3 815 816 647
3 649 657 817
3 818 649 817
3 817 657 751
3 819 677 820
3 820 677 685
3 677 821 685
3 453 460 691
3 691 460 768
3 460 482 822
3 767 460 822
3 693 482 490
3 822 482 693
3 501 507 696
3 501 697 755
3 697 501 696
3 490 770 694
3 490 694 771
3 505 525 823
3 505 699 772
3 699 505 823
3 696 507 695
3 824 507 698
3 695 507 824
3 523 700 773
3 523 775 700
3 823 525 825
3 825 525 702
3 702 525 774
3 534 539 782
3 534 782 704
3 534 704 703
3 534 703 776
3 756 536 826
3 826 536 778
3 546 780 707
3 546 707 708
3 539 757 781
3 711 550 712
3 714 550 711
3 712 550 783
3 779 550 714
3 718 558 560
3 717 558 718
3 827 558 717
3 784 558 827
3 719 570 790
3 787 570 719
3 565 570 787
3 715 560 716
3 716 560 720
3 724 575 828
3 788 575 724
3 828 575 791
3 570 575 788
3 730 578 794
3 729 578 730
3 575 578 729
3 575 729 829
3 575 829 792
3 830 585 733
3 793 585 830
3 578 585 793
3 831 585 795
3 733 585 831
3 736 587 800
3 832 587 736
3 585 587 798
3 798 587 832
3 833 799 596
3 758 833 596
3 802 834 609
3 834 596 609
3 801 596 834
3 741 742 599
3 742 803 599
3 740 609 608
3 835 609 740
3 759 599 613
3 804 759 613
3 760 614 616
3 805 614 836
3 760 836 614
3 807 616 745
3 747 837 622
3 837 810 622
3 682 838 631
3 838 812 631
3 839 811 638
3 811 622 638
3 750 839 638
3 813 749 631
3 749 640 631
3 840 683 647
3 683 631 647
3 816 840 647
3 815 649 684
3 684 649 818
3 751 657 752
3 752 657 841
3 841 657 677
3 819 841 677
3 821 346 686
3 677 346 821
3 686 346 753
